<?xml version="1.0" standalone="no"?>
<!DOCTYPE svg PUBLIC "-//W3C//DTD SVG 20010904//EN"
 "http://www.w3.org/TR/2001/REC-SVG-20010904/DTD/svg10.dtd">
<svg version="1.0" xmlns="http://www.w3.org/2000/svg"
 width="1280.000000pt" height="223.000000pt" viewBox="0 0 1280.000000 223.000000"
 preserveAspectRatio="xMidYMid meet">

<g transform="translate(0.000000,223.000000) scale(0.100000,-0.100000)"
fill="#000000" stroke="none">
<path d="M1942 2075 c-113 -25 -166 -44 -237 -84 -172 -96 -307 -271 -356
-459 -23 -85 -24 -37 21 -722 11 -162 26 -407 35 -545 9 -137 17 -250 19 -252
1 -2 20 10 42 25 21 16 113 79 204 141 91 62 246 168 345 236 99 68 252 172
340 232 209 141 322 251 382 373 59 118 77 193 77 325 0 126 -21 213 -80 326
-43 81 -136 193 -207 247 -73 57 -194 120 -274 143 -90 27 -230 33 -311 14z"/>
<path d="M645 2055 c-383 -55 -640 -347 -638 -725 1 -129 25 -228 85 -342 73
-140 98 -160 717 -574 311 -207 571 -378 578 -381 8 -3 -57 106 -143 243 -87
137 -173 274 -191 304 -19 30 -69 109 -111 176 -334 524 -331 517 -339 704 -5
97 -2 129 16 200 36 143 93 247 188 346 l50 52 -45 6 c-54 7 -54 7 -167 -9z"/>
<path d="M3140 1115 l0 -755 168 2 167 3 3 268 2 267 143 0 c225 0 321 32 422
142 157 169 175 431 44 628 -48 72 -120 129 -210 168 l-64 27 -337 3 -338 3 0
-756z m595 472 c76 -39 117 -110 118 -201 0 -72 -18 -119 -64 -165 -50 -51
-85 -61 -204 -61 l-105 0 0 218 c0 120 3 222 7 226 13 13 217 0 248 -17z"/>
<path d="M4345 1858 c-3 -7 -4 -346 -3 -753 l3 -740 165 0 165 0 5 264 5 264
178 -267 177 -266 211 0 c165 0 209 3 203 13 -4 6 -97 126 -207 266 -109 139
-201 259 -204 267 -3 8 5 16 24 20 44 11 114 53 161 98 57 54 95 116 122 196
19 56 22 81 18 186 -4 116 -5 125 -40 195 -48 96 -88 143 -162 191 -113 73
-146 78 -502 78 -243 0 -316 -3 -319 -12z m602 -278 c122 -68 146 -252 47
-354 -54 -56 -87 -66 -209 -66 l-105 0 0 218 c0 120 3 221 6 225 4 3 54 5 113
4 90 -3 112 -7 148 -27z"/>
<path d="M5572 1118 l3 -753 165 0 165 0 0 750 0 750 -168 3 -167 2 2 -752z"/>
<path d="M6176 1854 c-9 -24 -7 -1467 2 -1482 7 -9 47 -12 168 -10 l159 3 5
460 c3 311 8 455 15 445 6 -8 121 -215 256 -460 l246 -445 169 0 169 0 0 750
0 750 -165 0 -165 0 -5 -460 -5 -460 -21 35 c-12 19 -76 134 -142 255 -67 121
-172 312 -234 425 l-114 205 -166 3 c-144 2 -166 0 -172 -14z"/>
<path d="M7517 1863 c-4 -3 -7 -71 -7 -150 l0 -143 215 0 215 0 2 -602 3 -603
165 0 165 0 5 600 5 600 213 3 212 2 0 150 0 150 -593 0 c-327 0 -597 -3 -600
-7z"/>
<path d="M8860 1115 l0 -755 165 0 165 0 0 266 c0 146 4 263 8 260 5 -3 86
-122 182 -265 l174 -261 208 0 c114 0 208 3 208 6 0 6 -312 411 -382 495 -21
25 -38 48 -38 51 0 2 17 10 38 16 56 17 153 83 190 129 181 229 137 575 -94
734 -23 15 -76 40 -117 54 -74 25 -80 25 -391 25 l-316 0 0 -755z m591 473
c68 -30 119 -116 119 -204 0 -61 -17 -107 -55 -151 -50 -59 -98 -74 -220 -71
l-100 3 -3 210 c-1 115 0 215 2 222 7 18 210 11 257 -9z"/>
<path d="M10090 1115 l0 -755 165 0 165 0 0 755 0 755 -165 0 -165 0 0 -755z"/>
<path d="M10690 1115 l0 -755 343 0 c266 0 356 4 405 15 166 39 278 148 311
303 23 111 8 242 -38 315 -42 69 -145 147 -226 172 l-20 6 20 15 c79 57 126
134 146 239 36 193 -100 388 -302 434 -24 6 -177 11 -341 11 l-298 0 0 -755z
m490 484 c49 -11 105 -57 122 -99 18 -47 11 -119 -16 -160 -42 -64 -81 -81
-178 -78 l-83 3 -3 160 c-1 87 0 165 2 172 6 16 91 17 156 2z m164 -653 c43
-33 75 -95 76 -145 0 -52 -35 -115 -82 -147 -40 -28 -44 -29 -177 -29 l-136 0
-3 178 -2 178 143 -3 c141 -3 144 -4 181 -32z"/>
<path d="M11920 1115 l0 -755 440 0 440 0 0 150 0 150 -272 2 -273 3 0 150 0
150 263 3 263 2 -3 148 -3 147 -260 5 -260 5 0 145 0 145 273 3 272 2 0 150 0
150 -440 0 -440 0 0 -755z"/>
</g>
</svg>
